<?xml version="1.0" encoding="utf-8"?>
<!-- Generator: Adobe Illustrator 26.0.3, SVG Export Plug-In . SVG Version: 6.00 Build 0)  -->
<svg version="1.1" id="Layer_1" xmlns="http://www.w3.org/2000/svg" xmlns:xlink="http://www.w3.org/1999/xlink" x="0px" y="0px"
	 viewBox="0 0 24.5 17.8" style="enable-background:new 0 0 24.5 17.8;" xml:space="preserve">
<g>
	<path d="M18.2,4.4c-0.3,0-0.7,0-1.1,0.1c-0.3,0.1-0.6-0.1-0.8-0.4C14.8,1.6,12.2,0,9.4,0c-2,0-3.9,0.8-5.3,2.1
		C3.8,2.4,3.7,2.9,4,3.2l0,0c0.3,0.3,0.7,0.3,1,0.1c1.2-1,2.7-1.7,4.3-1.7c2.6,0,5,1.7,6.1,4.4c0.2,0.4,0.6,0.6,1,0.4
		C17,6.1,17.7,6,18.2,6c2.6,0,4.7,2.3,4.7,5.1c0,2.8-2.1,5.1-4.7,5.1H9.4c-1.5,0-2.9-0.5-4.1-1.5c-0.3-0.2-0.7-0.2-1,0.1l0,0
		C4,15.1,4,15.6,4.4,15.9c1.4,1.1,3.1,1.8,5,1.8h8.8c3.4,0,6.2-3,6.2-6.7S21.6,4.4,18.2,4.4z"/>
	<path d="M5.9,8.6L2.6,5.3L1.9,4.6L1.5,4.2c0,0,0,0,0,0c-0.3-0.3-0.8-0.3-1.1,0C0,4.5,0,5,0.3,5.3l0.6,0.6l0.7,0.7l2.6,2.6l-2.7,2.7
		l-0.5,0.5L0.3,13c-0.1,0.1-0.2,0.3-0.2,0.6c0,0.4,0.3,0.8,0.8,0.8c0.2,0,0.4-0.1,0.6-0.2L2,13.5l0.8-0.8l3.1-3.1
		C6.2,9.4,6.2,8.9,5.9,8.6z"/>
</g>
</svg>
